<svg width="1231" height="464" viewBox="0 0 1231 464" fill="none" xmlns="http://www.w3.org/2000/svg">
<path d="M20.5716 344.706L30.0871 143.981L569.98 169.919C569.98 169.919 574.336 113.237 643.296 123.857C734.062 137.83 888.472 134.393 888.472 134.393C888.472 134.393 1076.06 144.618 1129.95 147.585C1205.07 151.72 1204.88 222.165 1139.67 222.165C1048.72 222.165 1025.48 223.001 1007.36 221.547C981.662 219.477 918.393 224.871 918.393 224.871C918.393 224.871 1155.09 240.148 1187.28 240.148C1218.91 240.148 1246.59 310.426 1181.35 314.562C1082 320.857 914.441 307.555 914.441 307.555C914.441 307.555 1115.59 322.156 1139.83 331.098C1173.44 343.502 1169.61 392.06 1125.99 391.045C1037.17 388.98 896.645 379.904 896.645 379.904C896.645 379.904 982.923 388.957 1037.02 394.913C1074.58 399.044 1100.29 450.72 1023.18 452.789C980.503 453.932 925.86 455.525 872.921 448.655C806.31 440.007 752.555 457.728 716.729 449.38C643.245 432.25 587.5 404.237 587.5 404.237L20.5716 344.706Z" fill="#F7CFBE"/>
<path d="M9.9997 352.655L18.9864 134.29L554.493 174.177C554.493 174.177 613.968 97.5543 685.996 108.184C780.802 122.17 873.641 134.29 873.641 134.29C873.641 134.29 1069.57 144.524 1125.86 147.494C1204.33 151.633 1204.13 222.142 1136.02 222.142C1041.02 222.142 1016.75 222.978 997.822 221.523C970.978 219.451 904.894 224.85 904.894 224.85C904.894 224.85 1152.13 240.141 1185.75 240.141C1218.79 240.141 1247.7 310.483 1179.55 314.622C1075.78 320.923 900.765 307.609 900.765 307.609C900.765 307.609 1110.87 322.224 1136.18 331.173C1171.29 343.588 1167.29 392.19 1121.73 391.174C1028.96 389.108 882.178 380.024 882.178 380.024C882.178 380.024 972.295 389.085 1028.8 395.046C1068.04 399.181 1094.88 450.904 1014.34 452.975C969.767 454.118 912.693 455.714 857.398 448.837C787.823 440.181 731.676 457.918 694.256 449.563C617.501 432.417 554.493 391.174 554.493 391.174L9.9997 352.655Z" stroke="#E16049" stroke-width="19.7633" stroke-linecap="round" stroke-linejoin="round"/>
<path d="M632.306 116.463C632.306 116.463 716.97 77.1564 739.688 64.7422C762.406 52.3269 840.721 20.9227 859.465 13.0145C898.7 -3.53714 917.286 52.3269 892.505 77.1564C867.725 101.982 797.51 139.222 797.51 139.222C797.51 139.222 781.24 181.917 776.859 195.082C768.6 219.913 733.494 236.463 733.494 236.463" fill="#F7CFBE"/>
<path d="M632.306 116.463C632.306 116.463 716.97 77.1564 739.688 64.7422C762.406 52.3269 840.721 20.9227 859.465 13.0145C898.7 -3.53714 917.286 52.3269 892.505 77.1564C867.725 101.982 797.51 139.222 797.51 139.222C797.51 139.222 781.24 181.917 776.859 195.082C768.6 219.913 733.494 236.463 733.494 236.463" stroke="#E16049" stroke-width="19.7633" stroke-linecap="round" stroke-linejoin="round"/>
</svg>
