<svg width="1232" height="464" viewBox="0 0 1232 464" fill="none" xmlns="http://www.w3.org/2000/svg">
<path d="M1211.13 344.706L1201.62 143.981L661.726 169.919C661.726 169.919 657.37 113.237 588.41 123.857C497.644 137.83 343.234 134.393 343.234 134.393C343.234 134.393 155.651 144.618 101.761 147.585C26.6321 151.72 26.8224 222.165 92.0382 222.165C182.984 222.165 206.225 223.001 224.343 221.547C250.045 219.477 313.313 224.871 313.313 224.871C313.313 224.871 76.6111 240.148 44.4268 240.148C12.7942 240.148 -14.8868 310.426 50.3574 314.562C149.703 320.857 317.266 307.555 317.266 307.555C317.266 307.555 116.114 322.156 91.8773 331.098C58.2658 343.502 62.1 392.06 105.716 391.045C194.536 388.98 335.061 379.904 335.061 379.904C335.061 379.904 248.783 388.957 194.686 394.913C157.121 399.044 131.418 450.72 208.528 452.789C251.204 453.932 305.846 455.525 358.785 448.655C425.396 440.007 479.151 457.728 514.977 449.38C588.461 432.25 644.206 404.237 644.206 404.237L1211.13 344.706Z" fill="#F7CFBE"/>
<path d="M1221.71 352.655L1212.72 134.29L677.213 174.177C677.213 174.177 617.738 97.5543 545.71 108.184C450.905 122.17 358.065 134.29 358.065 134.29C358.065 134.29 162.134 144.524 105.846 147.494C27.374 151.633 27.5727 222.142 95.6907 222.142C190.684 222.142 214.959 222.978 233.884 221.523C260.728 219.451 326.812 224.85 326.812 224.85C326.812 224.85 79.5771 240.141 45.9605 240.141C12.9202 240.141 -15.9926 310.483 52.155 314.622C155.922 320.923 330.941 307.609 330.941 307.609C330.941 307.609 120.838 322.224 95.5226 331.173C60.4154 343.588 64.4202 392.19 109.977 391.174C202.75 389.108 349.528 380.024 349.528 380.024C349.528 380.024 259.411 389.085 202.906 395.046C163.67 399.181 136.823 450.904 217.364 452.975C261.939 454.118 319.013 455.714 374.308 448.837C443.883 440.181 500.03 457.918 537.45 449.563C614.205 432.417 677.213 391.174 677.213 391.174L1221.71 352.655Z" stroke="#E16049" stroke-width="19.7633" stroke-linecap="round" stroke-linejoin="round"/>
<path d="M599.4 116.463C599.4 116.463 514.736 77.1564 492.018 64.7422C469.3 52.3269 390.986 20.9227 372.241 13.0145C333.006 -3.53714 314.42 52.3269 339.201 77.1564C363.981 101.982 434.196 139.222 434.196 139.222C434.196 139.222 450.466 181.917 454.847 195.082C463.106 219.913 498.212 236.463 498.212 236.463" fill="#F7CFBE"/>
<path d="M599.4 116.463C599.4 116.463 514.736 77.1564 492.018 64.7422C469.3 52.3269 390.986 20.9227 372.241 13.0145C333.006 -3.53714 314.42 52.3269 339.201 77.1564C363.981 101.982 434.196 139.222 434.196 139.222C434.196 139.222 450.466 181.917 454.847 195.082C463.106 219.913 498.212 236.463 498.212 236.463" stroke="#E16049" stroke-width="19.7633" stroke-linecap="round" stroke-linejoin="round"/>
</svg>
