<svg  viewBox="0 0 1051 468" fill="none" xmlns="http://www.w3.org/2000/svg">
<path d="M1033.71 309.762L1016.77 87.0661L457.511 125.205C457.511 125.205 356.111 1.33366 270.297 12.7423C231.22 17.9365 212.407 44.6973 205.799 48.994C195.142 55.9184 141.081 50.8492 85.9622 59.4965C17.751 70.1988 4.37743 110.145 14.9123 147.812C25.5716 185.908 57.9799 180.293 57.9799 180.293C57.9799 180.293 21.1281 204.244 28.5009 242.563C34.8525 275.606 72.7206 278.489 72.7206 278.489C72.7206 278.489 42.6769 304.136 53.0659 333.581C68.9751 378.659 119.395 367.111 119.395 367.111C119.395 367.111 68.5336 426.936 132.406 448.489C196.28 470.05 237.204 438.898 286.622 433.36C420.186 418.386 464.878 343.16 464.878 343.16L1033.71 309.762Z" fill="#F7CFBE"/>
<path d="M1038.71 310.5L1028.21 74.5L446.451 125.106C446.451 125.106 347.681 1.34305 264.092 12.7417C226.028 17.9313 207.703 44.6686 201.266 48.9614C190.885 55.8797 138.227 50.815 84.5367 59.4547C18.0943 70.1476 5.06746 110.059 15.3291 147.692C25.7121 185.754 57.28 180.145 57.28 180.145C57.28 180.145 21.3838 204.075 28.5655 242.36C34.7524 275.374 71.6386 278.254 71.6386 278.254C71.6386 278.254 42.3739 303.879 52.4934 333.298C67.9901 378.336 117.103 366.798 117.103 366.798C117.103 366.798 67.5601 426.571 129.776 448.105C191.994 469.646 231.857 438.522 279.994 432.989C410.094 418.028 453.628 342.869 453.628 342.869L1038.71 310.5Z" stroke="#E16049" stroke-width="22.9013" stroke-linecap="round" stroke-linejoin="round"/>
<path d="M66.0469 177.973C66.0469 177.973 217.056 122.456 226.796 175.34C237.762 234.905 207.505 255.677 184.006 257.483C153.03 259.868 67.8086 280.548 67.8086 280.548C67.8086 280.548 244.374 224.791 252.34 283.203C260.629 343.979 209.127 341.193 185.964 349.582C162.799 357.973 101.545 370.223 101.545 370.223C101.545 370.223 201.924 344.07 224.751 338.215C273.581 325.686 326.855 417.251 196.584 432.787L192.6 443.408" stroke="#E16049" stroke-width="22.9013" stroke-linecap="round" stroke-linejoin="round"/>
<path d="M318.005 135.466C318.005 135.466 280.629 154.015 277.413 182.309C261.651 320.842 146.527 286.487 161.241 189.796C183.101 46.1517 246.791 21.3906 246.791 21.3906" fill="#F7CFBE"/>
<path d="M318.005 135.466C318.005 135.466 280.629 154.015 277.413 182.309C261.651 320.842 146.527 286.487 161.241 189.796C183.101 46.1517 246.791 21.3906 246.791 21.3906" stroke="#E16049" stroke-width="22.9013" stroke-linecap="round" stroke-linejoin="round"/>
</svg>
