<svg  viewBox="0 0 1050 468" fill="none" xmlns="http://www.w3.org/2000/svg">
<path d="M17 309.762L33.9392 87.0661L593.195 125.205C593.195 125.205 694.595 1.33366 780.409 12.7423C819.486 17.9365 838.299 44.6973 844.907 48.994C855.564 55.9184 909.625 50.8492 964.744 59.4965C1032.96 70.1988 1046.33 110.145 1035.79 147.812C1025.13 185.908 992.726 180.293 992.726 180.293C992.726 180.293 1029.58 204.244 1022.21 242.563C1015.85 275.606 977.985 278.489 977.985 278.489C977.985 278.489 1008.03 304.136 997.64 333.581C981.731 378.659 931.311 367.111 931.311 367.111C931.311 367.111 982.172 426.936 918.3 448.489C854.426 470.05 813.502 438.898 764.084 433.36C630.52 418.386 585.828 343.16 585.828 343.16L17 309.762Z" fill="#F7CFBE"/>
<path d="M12 310.5L22.5 74.5L604.255 125.106C604.255 125.106 703.025 1.34305 786.614 12.7417C824.678 17.9313 843.003 44.6686 849.44 48.9614C859.821 55.8797 912.479 50.815 966.169 59.4547C1032.61 70.1476 1045.64 110.059 1035.38 147.692C1024.99 185.754 993.426 180.145 993.426 180.145C993.426 180.145 1029.32 204.075 1022.14 242.36C1015.95 275.374 979.067 278.254 979.067 278.254C979.067 278.254 1008.33 303.879 998.213 333.298C982.716 378.336 933.603 366.798 933.603 366.798C933.603 366.798 983.146 426.571 920.93 448.105C858.712 469.646 818.849 438.522 770.712 432.989C640.612 418.028 597.078 342.869 597.078 342.869L12 310.5Z" stroke="#E16049" stroke-width="22.9013" stroke-linecap="round" stroke-linejoin="round"/>
<path d="M984.659 177.973C984.659 177.973 833.65 122.456 823.91 175.34C812.944 234.905 843.201 255.677 866.7 257.483C897.676 259.868 982.897 280.548 982.897 280.548C982.897 280.548 806.332 224.791 798.366 283.203C790.077 343.979 841.579 341.193 864.742 349.582C887.907 357.973 949.161 370.223 949.161 370.223C949.161 370.223 848.783 344.07 825.955 338.215C777.125 325.686 723.851 417.251 854.122 432.787L858.106 443.408" stroke="#E16049" stroke-width="22.9013" stroke-linecap="round" stroke-linejoin="round"/>
<path d="M732.701 135.466C732.701 135.466 770.077 154.015 773.293 182.309C789.055 320.842 904.179 286.487 889.465 189.796C867.605 46.1517 803.915 21.3906 803.915 21.3906" fill="#F7CFBE"/>
<path d="M732.701 135.466C732.701 135.466 770.077 154.015 773.293 182.309C789.055 320.842 904.179 286.487 889.465 189.796C867.605 46.1517 803.915 21.3906 803.915 21.3906" stroke="#E16049" stroke-width="22.9013" stroke-linecap="round" stroke-linejoin="round"/>
</svg>
