<svg width="1419" height="470" viewBox="0 0 1419 470" fill="none" xmlns="http://www.w3.org/2000/svg">
<path d="M1399.1 307.762L1399.08 67.2437L877.436 90.7473L786.984 98.8713C786.984 98.8713 667.382 0.028119 577.256 13.8231C458.63 31.9804 395.153 31.4722 395.153 31.4722C395.153 31.4722 155.659 17.3878 85.1173 16.1661C-0.866878 14.6785 -13.4378 113.296 71.2952 123.018C183.599 135.901 396.623 154.676 396.623 154.676C354.43 171.895 124.863 231.879 71.5224 245.337C-20.6354 268.587 6.90757 364.397 74.2347 355.439C176.483 341.83 368.963 269.425 368.963 269.425C368.963 269.425 337.408 297.891 348.399 330.481C365.227 380.381 418.254 367.49 418.254 367.49C418.254 367.49 389.173 420.12 456.42 443.87C523.666 467.621 556.997 453.304 607.827 440.515C703.417 416.461 795.187 340.262 795.187 340.262L1399.1 307.762Z" fill="#F7CFBE"/>
<path d="M877.895 337.455L1406.48 320.388L1394.78 64.0871L954.369 90.751L848.573 98.8743L786.984 98.8713C786.984 98.8713 667.382 0.0281206 577.256 13.8231C458.63 31.9804 395.153 31.4722 395.153 31.4722C395.153 31.4722 155.659 17.3878 85.1173 16.1661C-0.866881 14.6785 -13.4378 113.296 71.2952 123.018C183.599 135.901 396.623 154.676 396.623 154.676C354.43 171.895 124.863 231.879 71.5224 245.337C-20.6354 268.587 6.90757 364.397 74.2347 355.438C176.484 341.83 368.964 269.425 368.964 269.425C368.964 269.425 337.408 297.891 348.399 330.481C365.227 380.381 418.254 367.49 418.254 367.49C418.254 367.49 389.173 420.12 456.42 443.87C523.667 467.621 556.997 453.304 607.827 440.515C703.417 416.461 795.187 340.262 795.187 340.262L877.895 337.455Z" stroke="#E16049" stroke-width="24.7368" stroke-linecap="round" stroke-linejoin="round"/>
<path d="M368.963 269.42C368.963 269.42 536.01 181.568 559.388 245.195C582.767 308.818 536.246 308.904 513.004 322.21C489.768 335.519 418.254 367.486 418.254 367.486C418.254 367.486 531.997 310.515 557.359 308.283C594.935 304.976 608.508 351.759 593.034 370.355C577.562 388.955 525.908 410.272 525.908 410.272L513.236 428.494" stroke="#E16049" stroke-width="24.7368" stroke-linecap="round" stroke-linejoin="round"/>
<path d="M648.271 110.612C648.271 110.612 609.516 131.473 604.517 162.619C587.844 266.503 470.788 276.98 486.48 169.76C509.795 10.4802 584.01 17.2661 584.01 17.2661" fill="#F7CFBE"/>
<path d="M648.271 110.612C648.271 110.612 609.516 131.473 604.517 162.619C587.844 266.503 470.788 276.98 486.48 169.76C509.795 10.4802 584.01 17.2661 584.01 17.2661" stroke="#E16049" stroke-width="24.7368" stroke-linecap="round" stroke-linejoin="round"/>
</svg>
