<svg width="1262" height="470" viewBox="0 0 1262 470" fill="none" xmlns="http://www.w3.org/2000/svg">
<path d="M19.7764 308.765L19.8372 68.2467L482.352 91.6404L562.55 99.7454C562.55 99.7454 668.616 0.877066 748.524 14.6531C853.7 32.7854 909.982 32.2639 909.982 32.2639C909.982 32.2639 1122.33 18.129 1184.88 16.8925C1261.12 15.3867 1272.24 114.001 1197.11 123.741C1097.53 136.648 908.652 155.468 908.652 155.468C946.06 172.678 1149.59 232.613 1196.88 246.06C1278.59 269.291 1254.15 365.107 1194.46 356.162C1103.8 342.576 933.153 270.211 933.153 270.211C933.153 270.211 961.126 298.671 951.374 331.263C936.442 381.166 889.429 368.286 889.429 368.286C889.429 368.286 915.203 420.91 855.572 444.674C795.943 468.44 766.394 454.13 721.328 441.351C636.578 417.318 555.226 341.138 555.226 341.138L19.7764 308.765Z" fill="#F7CFBE"/>
<path d="M481.894 338.348L13.2286 321.393L23.6556 65.0891L414.139 91.6604L507.942 99.7613L562.55 99.7453C562.55 99.7453 668.616 0.877068 748.524 14.6531C853.7 32.7854 909.982 32.2639 909.982 32.2639C909.982 32.2639 1122.33 18.129 1184.88 16.8925C1261.12 15.3867 1272.24 114.001 1197.11 123.741C1097.53 136.648 908.652 155.468 908.652 155.468C946.06 172.678 1149.59 232.613 1196.88 246.06C1278.59 269.291 1254.15 365.107 1194.46 356.162C1103.8 342.576 933.153 270.211 933.153 270.211C933.153 270.211 961.126 298.671 951.374 331.263C936.442 381.166 889.429 368.286 889.429 368.286C889.429 368.286 915.203 420.91 855.572 444.674C795.943 468.439 766.394 454.13 721.328 441.351C636.578 417.318 555.226 341.138 555.226 341.138L481.894 338.348Z" stroke="#E16049" stroke-width="24.7368" stroke-linecap="round" stroke-linejoin="round"/>
<path d="M933.153 270.202C933.153 270.202 785.059 182.385 764.318 246.016C743.575 309.644 784.823 309.721 805.428 323.021C826.028 336.326 889.429 368.277 889.429 368.277C889.429 368.277 788.59 311.33 766.104 309.103C732.787 305.805 720.743 352.591 734.459 371.184C748.173 389.78 793.968 411.086 793.968 411.086L805.2 429.306" stroke="#E16049" stroke-width="24.7368" stroke-linecap="round" stroke-linejoin="round"/>
<path d="M685.538 111.452C685.538 111.452 719.895 132.304 724.322 163.449C739.083 267.329 842.868 277.782 828.977 170.565C808.339 11.2901 742.534 18.0917 742.534 18.0917" fill="#F7CFBE"/>
<path d="M685.538 111.452C685.538 111.452 719.895 132.304 724.322 163.449C739.083 267.329 842.868 277.782 828.977 170.565C808.339 11.2901 742.534 18.0917 742.534 18.0917" stroke="#E16049" stroke-width="24.7368" stroke-linecap="round" stroke-linejoin="round"/>
</svg>
